# xmcd
#
# Track frame offsets:
#	150
#	18461
#	34025
#	50295
#	66579
#	87719
#	103180
#	120337
#	132545
#	150426
#	164347
#	187556
#	203235
#
# Disc length: 2991 seconds
#
# Revision: 1
# Processed by: cddbd v1.5.2PL0 Copyright (c) Steve Scherf et al.
# Submitted via: audiograbber 1.83.01
#
DISCID=ac0bad0d
DTITLE=17 Hippies - Phantom Songs
DYEAR=2011
DGENRE=Folk
TTITLE0=Ton Étrangère
TTITLE1=Lazy Friends and Promises
TTITLE2=Biese Bouwe
TTITLE3=Jolies Filles
TTITLE4=Across Waters
TTITLE5=Gimme Dat Harp Boy
TTITLE6=Dorn
TTITLE7=Singapore
TTITLE8=Blumen im Gras
TTITLE9=Mädchen im Glück
TTITLE10=Moi
TTITLE11=The Train
TTITLE12=Herz auf der Zunge
EXTD=
EXTT0=
EXTT1=
EXTT2=
EXTT3=
EXTT4=
EXTT5=
EXTT6=
EXTT7=
EXTT8=
EXTT9=
EXTT10=
EXTT11=
EXTT12=
PLAYORDER=
